<?xml version="1.0" standalone="no"?>
<!DOCTYPE svg PUBLIC "-//W3C//DTD SVG 20010904//EN"
 "http://www.w3.org/TR/2001/REC-SVG-20010904/DTD/svg10.dtd">
<svg version="1.0" xmlns="http://www.w3.org/2000/svg"
 width="512.000000pt" height="512.000000pt" viewBox="0 0 512.000000 512.000000"
 preserveAspectRatio="xMidYMid meet">
<metadata>
Created by potrace 1.11, written by Peter Selinger 2001-2013
</metadata>
<g transform="translate(0.000000,512.000000) scale(0.100000,-0.100000)"
fill="#000000" stroke="none">
<path d="M1855 4951 c-48 -14 -104 -56 -134 -102 l-32 -49 -217 0 c-198 0
-219 -2 -242 -20 l-25 -19 -3 -342 c-3 -367 0 -393 45 -410 13 -5 116 -9 229
-9 l204 0 0 -576 0 -576 -27 6 c-16 4 -39 9 -53 12 -14 3 -74 7 -135 9 -99 4
-178 -5 -275 -30 -24 -6 -34 7 -153 182 -202 298 -231 329 -348 374 -70 27
-193 29 -264 4 -73 -25 -241 -141 -255 -175 -16 -38 -8 -58 61 -159 33 -47 98
-142 145 -211 47 -69 132 -193 189 -277 l104 -152 -39 -93 -39 -93 -76 -6
c-121 -8 -117 4 -111 -324 5 -290 12 -344 72 -520 127 -377 451 -705 824 -834
176 -61 285 -78 508 -80 l112 -1 0 -53 c0 -113 49 -199 138 -243 34 -18 69
-19 507 -19 510 0 482 -3 553 57 49 41 74 100 80 184 l5 74 111 1 c174 2 238
8 346 33 550 128 957 568 1047 1131 4 28 8 163 8 302 0 299 6 284 -111 292
l-76 6 -32 80 c-101 255 -317 447 -589 526 -113 33 -299 34 -439 3 l-28 -6 0
576 0 576 725 0 c769 0 771 0 789 45 3 9 6 167 6 351 0 361 -3 384 -52 398
-13 3 -424 6 -913 6 l-890 0 -13 29 c-17 38 -68 88 -112 109 -23 11 -59 17
-105 17 -59 0 -77 -5 -113 -28 l-43 -28 -25 20 c-42 33 -124 46 -191 31 -47
-10 -65 -21 -110 -65 -29 -30 -53 -61 -53 -69 0 -13 -15 -16 -95 -16 l-95 0
-24 38 c-62 97 -169 142 -271 113z m104 -166 c16 -8 31 -25 35 -37 3 -13 6
-483 6 -1044 l0 -1022 -79 52 -80 51 0 981 c-1 1036 -3 997 44 1022 27 15 41
15 74 -3z m661 -11 c13 -13 15 -131 18 -954 2 -834 1 -940 -13 -941 -8 0 -37
0 -65 0 -27 0 -57 0 -65 0 -13 1 -15 111 -15 934 0 868 2 933 18 953 9 12 24
24 32 27 23 9 73 -1 90 -19z m311 7 l24 -19 3 -990 2 -991 -32 16 c-17 9 -52
24 -77 33 l-46 16 -3 939 c-1 517 0 950 3 962 6 25 48 52 81 53 12 0 32 -9 45
-19z m-1251 -221 l0 -80 -160 0 -160 0 0 80 0 80 160 0 160 0 0 -80z m640 0
l0 -80 -80 0 -80 0 0 80 0 80 80 0 80 0 0 -80z m2480 0 l0 -80 -840 0 -840 0
0 80 0 80 840 0 840 0 0 -80z m-3120 -320 l0 -80 -160 0 -160 0 0 80 0 80 160
0 160 0 0 -80z m640 -660 c0 -645 -2 -740 -15 -740 -8 0 -40 -11 -71 -25 -31
-14 -60 -25 -65 -25 -5 0 -9 334 -9 765 l0 765 80 0 80 0 0 -740z m960 -27
l-1 -768 -79 -51 -80 -51 0 818 0 819 80 0 80 0 0 -767z m1520 687 l0 -80
-680 0 -680 0 0 80 0 80 680 0 680 0 0 -80z m-4152 -995 c51 -21 94 -68 187
-206 38 -57 95 -140 126 -185 l56 -80 -58 -38 c-32 -20 -88 -66 -125 -101
l-67 -63 -39 56 c-22 32 -77 113 -124 182 -47 69 -123 180 -169 248 l-85 123
56 35 c84 54 157 63 242 29z m977 -550 c71 -19 216 -88 240 -115 15 -17 14
-21 -21 -72 -21 -29 -41 -57 -45 -62 -4 -5 -28 6 -54 23 -25 17 -48 31 -51 31
-4 0 -20 6 -37 14 -145 64 -312 59 -465 -15 -93 -45 -191 -134 -232 -213 l-25
-46 -87 0 -88 0 24 54 c90 204 286 362 510 410 78 18 252 13 331 -9z m1140 -5
c200 -62 369 -210 451 -395 l24 -55 -85 0 -85 0 -37 58 c-155 243 -458 328
-720 201 -94 -45 -192 -135 -233 -213 l-25 -46 -87 0 -88 0 25 58 c90 204 319
383 522 408 20 3 39 7 42 10 13 13 231 -6 296 -26z m1095 6 c209 -55 397 -216
480 -412 l19 -44 -87 0 -87 0 -25 47 c-38 73 -139 166 -223 208 -103 51 -161
64 -275 61 -112 -4 -196 -28 -280 -84 -29 -19 -57 -31 -61 -26 -4 5 -25 33
-46 63 l-39 54 30 24 c65 52 187 102 309 127 46 9 225 -3 285 -18z m-2264
-330 c82 -38 124 -72 124 -102 l0 -24 -302 0 -303 1 54 49 c54 49 122 88 170
97 14 2 27 6 30 8 2 3 41 3 86 1 63 -3 96 -10 141 -30z m1133 -6 c60 -28 141
-92 141 -112 0 -4 -139 -8 -310 -8 -183 0 -310 4 -310 9 0 30 143 122 217 141
71 17 188 4 262 -30z m1113 3 c35 -17 86 -51 113 -76 l49 -47 -297 0 c-266 0
-298 2 -304 16 -9 25 8 45 68 82 77 47 131 61 225 58 66 -3 94 -9 146 -33z
m718 -363 l0 -80 -2000 0 -2000 0 0 80 0 80 2000 0 2000 0 0 -80z m-6 -277
c-26 -227 -110 -438 -244 -612 -187 -242 -450 -401 -755 -455 -66 -12 -242
-14 -1025 -12 -1033 3 -976 0 -1160 62 -90 31 -241 109 -318 166 -52 38 -195
176 -232 224 -27 34 -84 118 -99 144 -90 166 -135 308 -155 483 l-4 37 1998 0
1998 0 -4 -37z m-1516 -1304 c-8 -105 21 -99 -485 -96 -497 2 -464 -5 -471 97
l-4 60 482 0 482 0 -4 -61z"/>
</g>
</svg>
